<?xml version="1.0" standalone="no"?>
<!DOCTYPE svg PUBLIC "-//W3C//DTD SVG 20010904//EN"
 "http://www.w3.org/TR/2001/REC-SVG-20010904/DTD/svg10.dtd">
<svg version="1.0" xmlns="http://www.w3.org/2000/svg"
 width="1424.000000pt" height="1424.000000pt" viewBox="0 0 1424.000000 1424.000000"
 preserveAspectRatio="xMidYMid meet">
<metadata>
Created by potrace 1.14, written by Peter Selinger 2001-2017
</metadata>
<g transform="translate(0.000000,1424.000000) scale(0.100000,-0.100000)"
fill="#000000" stroke="none">
<path d="M133 10659 c-8 -8 -13 -42 -13 -89 0 -155 -38 -610 -57 -689 -4 -17
-2 -22 7 -19 8 2 30 68 52 154 84 332 171 500 290 558 42 21 78 28 173 36 137
11 256 13 280 4 46 -18 45 -3 45 -1022 0 -1068 3 -1026 -67 -1095 -41 -42
-118 -70 -221 -82 -34 -4 -62 -10 -62 -13 0 -4 227 -7 505 -7 278 0 505 3 505
6 0 3 -36 11 -81 17 -132 19 -200 57 -242 137 l-22 40 -3 970 c-1 534 0 980 3
993 12 48 39 62 123 62 149 0 310 -19 363 -41 119 -52 212 -230 299 -574 31
-121 43 -155 54 -144 2 2 -4 72 -14 154 -22 179 -40 423 -40 545 0 111 -4 115
-108 106 -250 -21 -376 -25 -837 -25 -280 0 -566 4 -635 9 -69 5 -161 12 -205
16 -59 4 -83 3 -92 -7z"/>
<path d="M2620 9876 c-263 -56 -472 -211 -581 -431 -57 -116 -79 -214 -79
-352 0 -145 19 -233 77 -352 104 -211 310 -351 565 -382 268 -32 535 58 720
243 160 160 236 361 225 592 -9 199 -73 345 -212 482 -66 66 -99 90 -176 128
-52 25 -121 53 -154 62 -82 22 -301 27 -385 10z m113 -71 c78 -20 124 -45 197
-106 93 -77 183 -197 250 -334 96 -196 127 -331 117 -508 -12 -221 -105 -353
-289 -408 -99 -30 -240 -24 -318 14 -174 84 -355 326 -438 587 -91 286 -56
538 94 670 94 82 259 118 387 85z"/>
<path d="M3724 9841 c-10 -10 11 -21 42 -21 44 0 106 -31 128 -64 44 -68 47
-116 44 -663 -3 -502 -4 -519 -24 -563 -29 -63 -73 -98 -134 -106 -123 -16
-24 -24 306 -24 330 0 420 7 294 24 -68 9 -115 51 -135 120 -12 42 -15 107
-13 342 l3 289 30 -1 c17 0 101 -7 188 -14 130 -11 184 -11 315 0 86 7 173 14
192 14 l35 1 3 -264 c2 -273 -4 -348 -36 -410 -22 -41 -89 -81 -139 -81 -18 0
-33 -4 -33 -10 0 -6 125 -10 355 -10 230 0 355 4 355 10 0 6 -15 10 -32 10
-44 1 -110 32 -136 64 -40 52 -44 103 -40 671 l3 540 23 41 c29 49 67 74 130
83 113 16 18 23 -303 23 -321 0 -416 -7 -303 -24 87 -12 127 -56 147 -163 16
-85 15 -430 -1 -442 -52 -41 -609 -46 -741 -7 -17 5 -18 21 -15 247 3 233 4
244 26 283 29 49 72 77 132 84 25 3 43 9 40 13 -5 9 -698 16 -706 8z"/>
<path d="M6330 9839 c-317 -25 -488 -148 -507 -365 -15 -185 92 -323 305 -390
l90 -29 -62 -56 c-65 -60 -102 -121 -130 -219 -45 -152 -127 -200 -258 -153
-58 21 -72 12 -93 -60 -20 -67 -20 -141 1 -158 24 -20 151 2 209 36 64 37 118
123 156 250 17 55 37 123 45 150 21 67 56 117 102 142 46 27 162 43 298 43 63
0 104 4 104 10 0 6 -1 10 -2 10 -29 1 -142 26 -205 45 -196 61 -275 191 -259
424 8 124 20 164 62 210 51 58 112 73 284 72 78 0 150 -5 160 -11 51 -27 51
-27 48 -648 l-3 -577 -25 -50 c-28 -56 -88 -95 -147 -95 -18 0 -33 -4 -33 -10
0 -6 127 -10 361 -10 237 0 358 3 354 10 -3 6 -21 10 -38 10 -59 0 -119 39
-147 95 l-25 50 0 555 0 555 25 49 c31 63 63 86 129 94 28 4 53 11 54 15 3 10
-729 15 -853 6z"/>
<path d="M114 6479 c-2 -4 17 -10 41 -14 95 -14 162 -61 187 -132 10 -31 13
-222 13 -978 l0 -940 -22 -47 c-27 -59 -80 -95 -161 -110 -34 -6 -60 -13 -58
-16 7 -7 796 -7 796 0 0 3 -19 9 -42 13 -102 16 -164 67 -187 150 -7 26 -11
207 -11 529 l0 489 118 -6 c142 -8 224 -27 317 -72 127 -61 219 -162 305 -334
23 -46 91 -211 152 -365 60 -155 121 -300 134 -323 44 -75 58 -79 377 -87 160
-4 215 5 125 19 -101 16 -171 72 -224 177 -15 29 -71 160 -125 291 -115 282
-161 365 -252 463 -75 81 -158 137 -261 178 -75 30 -243 66 -308 66 -52 0 -40
11 37 34 106 32 174 75 270 171 94 94 153 175 343 475 61 96 134 201 162 232
60 68 147 114 232 124 32 3 58 9 58 13 0 3 -128 6 -285 6 -157 0 -285 -3 -285
-7 0 -4 21 -10 48 -14 58 -8 115 -36 136 -66 23 -32 20 -93 -7 -147 -31 -59
-234 -376 -299 -463 -27 -38 -88 -103 -134 -147 -146 -137 -276 -187 -507
-198 l-128 -6 3 439 c3 434 3 440 26 481 28 54 81 90 154 104 32 6 58 14 58
18 0 8 -791 8 -796 0z"/>
<path d="M2785 5686 c-76 -39 -182 -78 -345 -128 l-75 -22 72 -6 c84 -6 114
-27 132 -93 9 -31 11 -265 9 -862 -3 -816 -3 -820 -25 -867 -25 -54 -59 -80
-116 -88 -22 -3 -42 -9 -44 -15 -2 -7 113 -10 332 -10 240 0 335 3 335 11 0 6
-19 14 -42 17 -53 7 -86 32 -118 88 l-25 44 0 300 c0 274 1 300 17 303 9 2 50
-19 90 -46 146 -99 206 -117 378 -110 139 6 220 30 326 99 175 114 295 291
345 505 18 81 21 114 16 232 -6 160 -27 245 -90 366 -150 290 -479 406 -755
267 -103 -52 -219 -175 -281 -299 -12 -23 -26 -40 -30 -38 -21 13 -19 171 5
349 8 60 -1 60 -111 3z m646 -163 c63 -31 166 -123 210 -188 67 -99 127 -259
149 -396 18 -115 9 -337 -19 -421 -55 -171 -168 -252 -371 -265 -211 -13 -361
73 -454 261 -62 125 -71 181 -71 446 0 215 2 241 22 305 37 118 112 218 197
262 55 28 79 32 177 30 84 -2 103 -6 160 -34z"/>
<path d="M4891 5719 c-279 -55 -519 -260 -605 -520 -116 -347 12 -727 302
-898 114 -68 207 -94 353 -99 192 -7 326 26 472 115 70 42 212 177 203 192 -4
5 -27 -10 -52 -34 -144 -140 -415 -165 -627 -59 -147 74 -284 208 -359 350
-46 88 -87 208 -75 220 3 4 187 10 409 15 222 6 458 12 525 15 l123 6 11 36
c17 57 23 231 10 291 -49 230 -271 383 -550 380 -53 -1 -116 -5 -140 -10z
m143 -73 c145 -71 271 -269 283 -445 3 -42 0 -94 -6 -117 l-11 -41 -152 -7
c-441 -19 -652 -26 -657 -20 -12 12 -6 289 8 344 42 166 145 269 305 306 83
19 165 12 230 -20z"/>
<path d="M8160 5716 c-325 -69 -565 -292 -641 -596 -18 -72 -21 -104 -17 -220
6 -155 31 -249 95 -360 49 -83 160 -194 243 -243 264 -153 637 -135 901 44
121 81 235 217 290 346 57 133 75 331 43 476 -8 40 -36 115 -62 167 -38 79
-61 110 -132 181 -71 72 -100 94 -180 133 -52 25 -122 53 -155 62 -82 22 -301
27 -385 10z m115 -71 c32 -9 81 -28 109 -43 64 -34 199 -167 256 -251 58 -87
133 -248 166 -356 24 -80 28 -107 28 -240 1 -131 -2 -158 -22 -215 -60 -174
-207 -270 -413 -270 -65 0 -102 5 -140 20 -294 116 -557 622 -511 983 28 212
146 343 342 377 72 12 122 11 185 -5z"/>
<path d="M9303 5688 c-6 -7 -13 -74 -17 -148 -3 -74 -13 -193 -21 -265 -20
-184 -16 -182 39 11 57 200 120 310 194 341 18 7 88 16 156 20 119 6 124 5
135 -15 8 -16 11 -186 9 -625 l-3 -603 -25 -49 c-29 -56 -89 -95 -147 -95 -18
0 -33 -4 -33 -10 0 -6 127 -10 361 -10 331 0 423 7 303 24 -66 9 -113 41 -138
95 -21 45 -21 59 -24 645 -2 543 -1 601 14 624 l16 25 119 -6 c66 -4 134 -13
152 -20 40 -17 89 -72 121 -135 25 -51 78 -206 97 -287 25 -108 36 -73 19 60
-5 39 -14 147 -20 240 -8 113 -16 175 -25 184 -10 11 -28 11 -101 1 -95 -13
-1065 -8 -1135 5 -24 5 -38 3 -46 -7z"/>
<path d="M6793 5677 c-5 -9 10 -14 67 -21 58 -6 100 -49 100 -101 0 -90 -117
-313 -215 -411 -95 -96 -179 -129 -357 -141 l-98 -6 0 245 c0 265 9 324 52
366 30 28 90 52 128 52 16 0 30 5 30 10 0 6 -127 10 -360 10 -233 0 -360 -4
-360 -10 0 -5 15 -10 33 -10 45 -1 110 -32 134 -66 41 -57 43 -89 43 -634 0
-545 -2 -577 -43 -634 -24 -34 -89 -65 -134 -66 -18 0 -33 -4 -33 -10 0 -6
127 -10 360 -10 233 0 360 4 360 10 0 6 -14 10 -30 10 -38 0 -98 24 -128 52
-44 43 -52 99 -52 396 l0 275 93 -6 c123 -7 180 -28 242 -91 62 -62 101 -140
195 -389 39 -104 78 -200 86 -212 24 -37 65 -44 279 -46 190 -2 257 7 165 23
-23 4 -56 16 -73 26 -39 22 -97 121 -168 286 -91 215 -158 300 -284 362 -66
33 -185 62 -260 64 -25 1 -20 5 31 24 33 12 77 32 96 44 68 42 161 154 242
292 138 234 188 286 288 299 29 3 51 10 48 15 -6 11 -470 14 -477 3z"/>
<path d="M10740 5673 c0 -7 10 -13 23 -13 38 0 83 -36 120 -97 35 -57 550
-1251 601 -1393 34 -94 33 -136 -5 -213 -108 -213 -201 -297 -330 -297 -122 0
-264 155 -299 327 -6 29 -16 53 -21 53 -26 0 -111 -152 -124 -221 -14 -78 78
-178 202 -220 173 -57 345 -4 466 144 125 153 191 288 542 1112 152 358 290
673 305 700 38 66 67 93 113 102 21 5 39 12 40 17 3 12 -427 13 -431 1 -1 -5
23 -13 55 -16 110 -11 157 -53 155 -139 -1 -43 -36 -134 -223 -571 -122 -286
-227 -518 -233 -516 -11 3 -54 99 -300 679 -92 218 -149 364 -153 395 -10 91
37 140 147 152 30 3 54 10 52 15 -1 5 -153 9 -352 10 -274 1 -350 -2 -350 -11z"/>
<path d="M12444 5681 c-10 -10 11 -21 43 -21 58 0 110 -36 141 -99 l27 -56 0
-535 c0 -595 0 -598 -64 -662 -30 -30 -48 -38 -89 -44 -128 -17 -39 -24 292
-24 330 0 429 8 306 24 -64 9 -112 49 -134 113 -13 38 -16 99 -16 346 l0 300
48 -7 c209 -29 423 -30 621 -5 68 9 85 9 93 -2 13 -21 4 -575 -11 -621 -24
-75 -91 -128 -161 -128 -16 0 -30 -4 -30 -10 0 -6 125 -10 355 -10 230 0 355
4 355 10 0 6 -12 10 -27 10 -81 0 -149 50 -174 127 -9 27 -14 176 -16 526 -4
498 0 594 33 664 20 41 70 73 132 81 114 17 18 24 -303 24 -321 0 -417 -7
-303 -24 89 -12 132 -64 149 -181 14 -98 11 -400 -3 -419 -30 -37 -462 -54
-663 -26 l-90 13 0 245 c0 235 1 247 23 287 25 49 67 75 132 82 25 4 45 10 45
15 0 8 -702 15 -711 7z"/>
</g>
</svg>
