<svg width="136" height="26" viewBox="0 0 136 26" fill="none" xmlns="http://www.w3.org/2000/svg">
<path d="M12.6688 10.864C12.6688 10.924 12.6448 10.96 12.5968 10.972C12.5608 10.972 12.5368 10.942 12.5248 10.882C12.1288 9.574 11.7388 8.596 11.3548 7.948C10.9708 7.3 10.5388 6.886 10.0588 6.706C9.89084 6.61 9.34484 6.55 8.42084 6.526C8.32484 6.526 8.24684 6.598 8.18684 6.742C8.12684 6.874 8.09684 7.024 8.09684 7.192V16.822C8.09684 18.166 8.70284 18.862 9.91484 18.91C10.0228 18.91 10.0768 18.934 10.0768 18.982C10.0768 19.03 10.0228 19.054 9.91484 19.054C9.19484 19.018 8.68484 19 8.38484 19H5.09084C4.80284 19 4.29884 19.018 3.57884 19.054C3.47084 19.054 3.41684 19.03 3.41684 18.982C3.41684 18.934 3.47084 18.91 3.57884 18.91C4.77884 18.862 5.37884 18.166 5.37884 16.822V7.192C5.37884 7.012 5.34884 6.856 5.28884 6.724C5.22884 6.592 5.15084 6.526 5.05484 6.526C4.13084 6.55 3.58484 6.61 3.41684 6.706C2.93684 6.886 2.49284 7.312 2.08484 7.984C1.68884 8.656 1.31684 9.622 0.968844 10.882C0.944844 10.942 0.908844 10.972 0.860844 10.972C0.824844 10.96 0.812844 10.918 0.824844 10.846C0.980844 9.67 1.05884 8.548 1.05884 7.48L1.04084 6.562C1.04084 6.298 1.16684 6.166 1.41884 6.166C1.53884 6.166 1.70084 6.184 1.90484 6.22C1.96484 6.232 2.25284 6.268 2.76884 6.328C3.28484 6.376 4.15484 6.4 5.37884 6.4H8.09684C9.32084 6.4 10.1908 6.376 10.7068 6.328C11.2228 6.268 11.5108 6.232 11.5708 6.22C11.7868 6.184 11.9548 6.166 12.0748 6.166C12.3268 6.166 12.4528 6.316 12.4528 6.616C12.4408 6.82 12.4348 7.138 12.4348 7.57C12.4348 8.578 12.5128 9.67 12.6688 10.846V10.864ZM16.3472 19.306C15.4832 19.306 14.7032 19.126 14.0072 18.766C13.3232 18.406 12.7832 17.902 12.3872 17.254C12.0032 16.594 11.8112 15.844 11.8112 15.004C11.8112 14.14 12.0332 13.36 12.4772 12.664C12.9332 11.956 13.5452 11.404 14.3132 11.008C15.0932 10.612 15.9512 10.414 16.8872 10.414C17.7752 10.414 18.5672 10.594 19.2632 10.954C19.9592 11.314 20.5052 11.818 20.9012 12.466C21.2972 13.114 21.4952 13.852 21.4952 14.68C21.4952 15.544 21.2672 16.33 20.8112 17.038C20.3552 17.746 19.7372 18.304 18.9572 18.712C18.1772 19.108 17.3072 19.306 16.3472 19.306ZM17.4812 18.856C18.0692 18.868 18.5252 18.712 18.8492 18.388C19.1852 18.052 19.3532 17.572 19.3532 16.948C19.3532 16.216 19.1552 15.37 18.7592 14.41C18.3752 13.438 17.9012 12.604 17.3372 11.908C16.7732 11.2 16.2512 10.84 15.7712 10.828C15.1952 10.816 14.7392 10.978 14.4032 11.314C14.0792 11.638 13.9172 12.118 13.9172 12.754C13.9172 13.474 14.1092 14.32 14.4932 15.292C14.8892 16.252 15.3632 17.086 15.9152 17.794C16.4792 18.49 17.0012 18.844 17.4812 18.856ZM33.5034 18.874C33.5634 18.874 33.5934 18.898 33.5934 18.946C33.5934 18.994 33.5634 19.018 33.5034 19.018C33.3114 19.018 33.1494 19.012 33.0174 19L32.3514 18.982H29.7774L29.1474 19C29.0274 19.012 28.8774 19.018 28.6974 19.018C28.6374 19.018 28.6074 18.994 28.6074 18.946C28.6074 18.898 28.6374 18.874 28.6974 18.874C29.0814 18.874 29.3634 18.724 29.5434 18.424C29.7234 18.112 29.8134 17.59 29.8134 16.858V14.734C29.8134 14.674 29.7954 14.626 29.7594 14.59C29.7354 14.542 29.6934 14.524 29.6334 14.536C29.0214 14.62 28.4394 14.662 27.8874 14.662C27.3474 14.662 26.7594 14.62 26.1234 14.536H26.1054C26.0334 14.536 25.9974 14.602 25.9974 14.734V16.858C25.9974 17.602 26.0814 18.124 26.2494 18.424C26.4294 18.724 26.7114 18.874 27.0954 18.874C27.1554 18.874 27.1854 18.898 27.1854 18.946C27.1854 18.994 27.1554 19.018 27.0954 19.018C26.9154 19.018 26.7654 19.012 26.6454 19L26.0154 18.982H23.4414L22.7934 19C22.6614 19.012 22.4934 19.018 22.2894 19.018C22.2294 19.018 22.1994 18.994 22.1994 18.946C22.1994 18.898 22.2294 18.874 22.2894 18.874C22.7094 18.874 23.0094 18.724 23.1894 18.424C23.3814 18.124 23.4774 17.602 23.4774 16.858V12.844C23.4774 12.112 23.3814 11.596 23.1894 11.296C23.0094 10.996 22.7094 10.846 22.2894 10.846C22.2294 10.846 22.1994 10.822 22.1994 10.774C22.1994 10.714 22.2294 10.684 22.2894 10.684C22.6734 10.708 23.0574 10.72 23.4414 10.72H26.0154C26.3994 10.72 26.7594 10.708 27.0954 10.684C27.1554 10.684 27.1854 10.714 27.1854 10.774C27.1854 10.822 27.1554 10.846 27.0954 10.846C26.7114 10.846 26.4294 10.996 26.2494 11.296C26.0814 11.596 25.9974 12.112 25.9974 12.844V14.176C25.9974 14.308 26.0394 14.38 26.1234 14.392C26.6154 14.476 27.1854 14.518 27.8334 14.518C28.5294 14.518 29.1294 14.476 29.6334 14.392C29.7534 14.356 29.8134 14.284 29.8134 14.176V12.844C29.8134 12.112 29.7234 11.596 29.5434 11.296C29.3634 10.996 29.0814 10.846 28.6974 10.846C28.6374 10.846 28.6074 10.822 28.6074 10.774C28.6074 10.714 28.6374 10.684 28.6974 10.684C29.0334 10.708 29.3934 10.72 29.7774 10.72H32.3514C32.7594 10.72 33.1434 10.708 33.5034 10.684C33.5634 10.684 33.5934 10.714 33.5934 10.774C33.5934 10.822 33.5634 10.846 33.5034 10.846C33.0954 10.846 32.7954 10.996 32.6034 11.296C32.4234 11.596 32.3334 12.112 32.3334 12.844V16.858C32.3334 17.602 32.4234 18.124 32.6034 18.424C32.7954 18.724 33.0954 18.874 33.5034 18.874ZM43.8696 18.874C43.9296 18.874 43.9596 18.898 43.9596 18.946C43.9596 18.994 43.9296 19.018 43.8696 19.018C43.6776 19.018 43.5156 19.012 43.3836 19L42.7176 18.982H40.1436L39.4776 19C39.3456 19.012 39.1836 19.018 38.9916 19.018C38.9316 19.018 38.9016 18.994 38.9016 18.946C38.9016 18.898 38.9316 18.874 38.9916 18.874C39.4116 18.874 39.7116 18.724 39.8916 18.424C40.0716 18.124 40.1616 17.602 40.1616 16.858V11.926C40.1616 11.578 40.1076 11.326 39.9996 11.17C39.9036 11.014 39.7776 10.93 39.6216 10.918L39.1356 10.9C38.7276 10.888 38.4276 10.948 38.2356 11.08C38.0436 11.212 37.9176 11.416 37.8576 11.692C37.8096 11.968 37.7856 12.37 37.7856 12.898C37.7856 13.618 37.9416 14.152 38.2536 14.5C38.5656 14.848 39.0576 15.07 39.7296 15.166C39.7656 15.178 39.7836 15.202 39.7836 15.238C39.7836 15.274 39.7656 15.292 39.7296 15.292C39.3696 15.316 39.1116 15.328 38.9556 15.328C38.5116 15.34 38.1696 15.376 37.9296 15.436C37.6896 15.496 37.4916 15.622 37.3356 15.814C37.1796 15.994 37.0536 16.282 36.9576 16.678C36.7536 17.458 36.5076 18.04 36.2196 18.424C35.9316 18.808 35.4936 19 34.9056 19C34.8216 19 34.6836 18.988 34.4916 18.964C34.3596 18.952 34.2936 18.808 34.2936 18.532C34.2936 18.304 34.3356 18.034 34.4196 17.722C34.5156 17.41 34.6236 17.17 34.7436 17.002C34.8636 16.822 34.9716 16.786 35.0676 16.894C35.4156 17.206 35.7396 17.362 36.0396 17.362C36.2196 17.362 36.3576 17.308 36.4536 17.2C36.5616 17.08 36.6576 16.888 36.7416 16.624C36.9096 16.036 37.2036 15.574 37.6236 15.238C36.8196 15.106 36.2076 14.86 35.7876 14.5C35.3676 14.128 35.1576 13.648 35.1576 13.06C35.1576 12.268 35.4756 11.68 36.1116 11.296C36.7596 10.9 37.7616 10.702 39.1176 10.702C40.9536 10.702 42.1536 10.708 42.7176 10.72C43.1256 10.72 43.5096 10.708 43.8696 10.684C43.9296 10.684 43.9596 10.714 43.9596 10.774C43.9596 10.822 43.9296 10.846 43.8696 10.846C43.4496 10.846 43.1436 10.996 42.9516 11.296C42.7716 11.596 42.6816 12.112 42.6816 12.844V16.858C42.6816 17.602 42.7716 18.124 42.9516 18.424C43.1436 18.724 43.4496 18.874 43.8696 18.874ZM62.0946 18.91C62.1666 18.91 62.1966 18.934 62.1846 18.982C62.1846 19.03 62.1486 19.054 62.0766 19.054C61.5726 19.018 61.2066 19 60.9786 19H59.5026C58.9266 19 58.5186 18.886 58.2786 18.658C58.0386 18.418 57.8586 18.112 57.7386 17.74L56.7486 14.986C56.4126 14.086 56.0046 13.432 55.5246 13.024C55.0566 12.604 54.3666 12.394 53.4546 12.394H53.2206V16.822C53.2206 18.166 53.6586 18.862 54.5346 18.91C54.6186 18.91 54.6546 18.934 54.6426 18.982C54.6426 19.03 54.6066 19.054 54.5346 19.054C53.9946 19.018 53.6286 19 53.4366 19H50.3406C50.1366 19 49.7646 19.018 49.2246 19.054C49.1646 19.054 49.1286 19.03 49.1166 18.982C49.1166 18.934 49.1526 18.91 49.2246 18.91C50.1006 18.862 50.5386 18.166 50.5386 16.822V8.578C50.5386 7.234 50.1006 6.538 49.2246 6.49C49.1526 6.49 49.1166 6.466 49.1166 6.418C49.1286 6.37 49.1646 6.346 49.2246 6.346C49.7646 6.382 50.1366 6.4 50.3406 6.4H53.4366C53.6286 6.4 53.9946 6.382 54.5346 6.346C54.6066 6.346 54.6426 6.37 54.6426 6.418C54.6546 6.466 54.6186 6.49 54.5346 6.49C53.6586 6.538 53.2206 7.234 53.2206 8.578V12.25H53.3466V12.232C54.1386 12.232 54.7986 12.13 55.3266 11.926C55.8666 11.71 56.2986 11.44 56.6226 11.116C56.9586 10.792 57.3006 10.372 57.6486 9.856L58.6566 8.344C58.9326 7.924 59.0706 7.57 59.0706 7.282C59.0706 7.03 58.9806 6.838 58.8006 6.706C58.6206 6.574 58.3986 6.502 58.1346 6.49C58.0506 6.49 58.0086 6.466 58.0086 6.418C58.0206 6.37 58.0626 6.346 58.1346 6.346C58.6386 6.382 59.0046 6.4 59.2326 6.4H59.8626C60.1266 6.4 60.5646 6.382 61.1766 6.346C61.2726 6.346 61.3206 6.37 61.3206 6.418C61.3206 6.466 61.2726 6.49 61.1766 6.49C60.7446 6.502 60.3546 6.652 60.0066 6.94C59.6706 7.216 59.2806 7.684 58.8366 8.344L57.8106 9.874C57.3546 10.558 56.9106 11.092 56.4786 11.476C56.0586 11.848 55.5066 12.106 54.8226 12.25C56.1186 12.298 57.1506 12.568 57.9186 13.06C58.6986 13.54 59.3046 14.344 59.7366 15.472L60.2766 16.912C60.5526 17.62 60.8286 18.124 61.1046 18.424C61.3926 18.724 61.7226 18.886 62.0946 18.91ZM69.4473 10.396C70.0713 10.396 70.6473 10.57 71.1753 10.918C71.7153 11.266 72.1473 11.764 72.4713 12.412C72.7953 13.06 72.9573 13.816 72.9573 14.68C72.9573 15.472 72.7713 16.222 72.3993 16.93C72.0273 17.638 71.5173 18.208 70.8693 18.64C70.2333 19.072 69.5433 19.288 68.7993 19.288C68.3793 19.288 68.0253 19.24 67.7373 19.144C67.4613 19.048 67.1913 18.922 66.9273 18.766C66.7353 18.658 66.6153 18.604 66.5673 18.604C66.4473 18.604 66.3873 18.706 66.3873 18.91V20.494C66.3873 21.226 66.4773 21.736 66.6573 22.024C66.8493 22.324 67.1313 22.48 67.5033 22.492C67.5633 22.492 67.5933 22.516 67.5933 22.564C67.5933 22.624 67.5633 22.648 67.5033 22.636C66.9513 22.612 66.1593 22.6 65.1273 22.6C64.1073 22.6 63.3213 22.612 62.7693 22.636C62.7093 22.636 62.6793 22.612 62.6793 22.564C62.6793 22.516 62.7093 22.492 62.7693 22.492C63.1533 22.492 63.4293 22.342 63.5973 22.042C63.7773 21.742 63.8673 21.22 63.8673 20.476V13.348C63.8673 12.808 63.8073 12.424 63.6873 12.196C63.5793 11.956 63.3513 11.836 63.0033 11.836C62.8953 11.836 62.8113 11.842 62.7513 11.854C62.7033 11.866 62.6733 11.854 62.6613 11.818C62.6613 11.77 62.6793 11.74 62.7153 11.728C63.3513 11.584 64.0053 11.386 64.6773 11.134C65.3613 10.882 65.9253 10.606 66.3693 10.306C66.4173 10.27 66.4593 10.252 66.4953 10.252C66.5553 10.252 66.5853 10.294 66.5853 10.378C66.5613 10.63 66.5133 11.152 66.4413 11.944C66.4413 12.112 66.4473 12.256 66.4593 12.376C66.4833 12.484 66.5133 12.526 66.5493 12.502C66.8733 11.89 67.2633 11.386 67.7193 10.99C68.1753 10.594 68.7513 10.396 69.4473 10.396ZM68.9433 19.036C69.6033 19.036 70.0773 18.85 70.3653 18.478C70.6533 18.106 70.7973 17.56 70.7973 16.84C70.7973 16.012 70.6533 15.208 70.3653 14.428C70.0893 13.636 69.7233 12.994 69.2673 12.502C68.8233 12.01 68.3553 11.764 67.8633 11.764C67.4073 11.764 67.0473 11.956 66.7833 12.34C66.5313 12.724 66.3993 13.264 66.3873 13.96V15.31C66.3873 16.018 66.4893 16.654 66.6933 17.218C66.9093 17.782 67.2093 18.226 67.5933 18.55C67.9893 18.874 68.4393 19.036 68.9433 19.036ZM82.0335 17.362C82.0455 17.35 82.0695 17.356 82.1055 17.38C82.1415 17.404 82.1415 17.44 82.1055 17.488C81.6495 18.064 81.0675 18.508 80.3595 18.82C79.6635 19.132 78.9555 19.288 78.2355 19.288C77.4555 19.288 76.7295 19.114 76.0575 18.766C75.3975 18.406 74.8695 17.902 74.4735 17.254C74.0775 16.606 73.8795 15.856 73.8795 15.004C73.8795 14.176 74.0895 13.414 74.5095 12.718C74.9415 12.01 75.5235 11.446 76.2555 11.026C76.9875 10.606 77.7915 10.396 78.6675 10.396C79.6515 10.396 80.4675 10.654 81.1155 11.17C81.7635 11.686 82.0875 12.4 82.0875 13.312C82.0875 13.72 82.0155 14.158 81.8715 14.626C80.3715 14.662 78.5055 14.722 76.2735 14.806C76.6455 15.73 77.2095 16.51 77.9655 17.146C78.7335 17.77 79.5075 18.082 80.2875 18.082C81.0435 18.082 81.6255 17.842 82.0335 17.362ZM77.5875 10.774C77.0355 10.774 76.6155 10.954 76.3275 11.314C76.0395 11.674 75.8955 12.202 75.8955 12.898C75.8955 13.462 76.0035 14.05 76.2195 14.662C77.2035 14.638 77.9175 14.614 78.3615 14.59C79.0095 14.566 79.4115 14.554 79.5675 14.554C79.6875 14.422 79.7475 14.224 79.7475 13.96C79.7475 13.576 79.6335 13.132 79.4055 12.628C79.1895 12.112 78.9135 11.674 78.5775 11.314C78.2415 10.954 77.9115 10.774 77.5875 10.774ZM93.3723 18.892C93.4323 18.904 93.4623 18.934 93.4623 18.982C93.4743 19.018 93.4503 19.036 93.3903 19.036H93.0303L90.5103 19C90.1143 19 89.8323 18.934 89.6643 18.802C89.4963 18.658 89.3823 18.472 89.3223 18.244L88.8183 16.75C88.6503 16.198 88.4943 15.784 88.3503 15.508C88.2063 15.232 88.0083 15.028 87.7563 14.896C87.5043 14.764 87.1623 14.698 86.7303 14.698H86.7123V16.858C86.7123 17.602 86.8023 18.124 86.9823 18.424C87.1743 18.724 87.4803 18.874 87.9003 18.874C87.9603 18.874 87.9903 18.898 87.9903 18.946C87.9903 18.994 87.9603 19.018 87.9003 19.018C87.6963 19.018 87.5283 19.012 87.3963 19L86.7483 18.982H84.1563L83.5083 19C83.3763 19.012 83.2083 19.018 83.0043 19.018C82.9443 19.018 82.9143 18.994 82.9143 18.946C82.9143 18.898 82.9443 18.874 83.0043 18.874C83.4243 18.874 83.7243 18.724 83.9043 18.424C84.0963 18.124 84.1923 17.602 84.1923 16.858V12.862C84.1923 12.13 84.0963 11.614 83.9043 11.314C83.7243 11.014 83.4243 10.864 83.0043 10.864C82.9443 10.864 82.9143 10.84 82.9143 10.792C82.9143 10.732 82.9443 10.702 83.0043 10.702C83.3883 10.726 83.7723 10.738 84.1563 10.738H86.7483C87.1323 10.738 87.5163 10.726 87.9003 10.702C87.9603 10.702 87.9903 10.732 87.9903 10.792C87.9903 10.84 87.9603 10.864 87.9003 10.864C87.4803 10.864 87.1743 11.014 86.9823 11.314C86.8023 11.614 86.7123 12.13 86.7123 12.862V14.59H86.7303C87.3663 14.59 87.8763 14.536 88.2603 14.428C88.6563 14.308 88.9863 14.122 89.2503 13.87C89.5143 13.618 89.7783 13.258 90.0423 12.79L90.1143 12.646C90.3663 12.19 90.4923 11.806 90.4923 11.494C90.4923 11.062 90.2163 10.846 89.6643 10.846C89.6043 10.846 89.5743 10.822 89.5743 10.774C89.5743 10.714 89.6043 10.684 89.6643 10.684C90.0483 10.708 90.4323 10.72 90.8163 10.72H91.2663C91.6743 10.72 92.0583 10.708 92.4183 10.684C92.4783 10.684 92.5083 10.714 92.5083 10.774C92.5083 10.822 92.4783 10.846 92.4183 10.846C92.0343 10.846 91.7103 10.972 91.4463 11.224C91.1823 11.464 90.8463 11.926 90.4383 12.61L90.2583 12.88C89.9343 13.396 89.6043 13.786 89.2683 14.05C88.9443 14.314 88.5243 14.494 88.0083 14.59C88.9683 14.59 89.7243 14.746 90.2763 15.058C90.8283 15.37 91.2663 15.916 91.5903 16.696L91.8243 17.236C92.0883 17.872 92.3223 18.304 92.5263 18.532C92.7303 18.76 93.0123 18.88 93.3723 18.892ZM98.4019 19.306C97.5379 19.306 96.7579 19.126 96.0619 18.766C95.3779 18.406 94.8379 17.902 94.4419 17.254C94.0579 16.594 93.8659 15.844 93.8659 15.004C93.8659 14.14 94.0879 13.36 94.5319 12.664C94.9879 11.956 95.5999 11.404 96.3679 11.008C97.1479 10.612 98.0059 10.414 98.9419 10.414C99.8299 10.414 100.622 10.594 101.318 10.954C102.014 11.314 102.56 11.818 102.956 12.466C103.352 13.114 103.55 13.852 103.55 14.68C103.55 15.544 103.322 16.33 102.866 17.038C102.41 17.746 101.792 18.304 101.012 18.712C100.232 19.108 99.3619 19.306 98.4019 19.306ZM99.5359 18.856C100.124 18.868 100.58 18.712 100.904 18.388C101.24 18.052 101.408 17.572 101.408 16.948C101.408 16.216 101.21 15.37 100.814 14.41C100.43 13.438 99.9559 12.604 99.3919 11.908C98.8279 11.2 98.3059 10.84 97.8259 10.828C97.2499 10.816 96.7939 10.978 96.4579 11.314C96.1339 11.638 95.9719 12.118 95.9719 12.754C95.9719 13.474 96.1639 14.32 96.5479 15.292C96.9439 16.252 97.4179 17.086 97.9699 17.794C98.5339 18.49 99.0559 18.844 99.5359 18.856ZM113.074 13.96C113.086 14.008 113.074 14.032 113.038 14.032C113.002 14.032 112.972 14.008 112.948 13.96C112.42 12.184 111.85 11.2 111.238 11.008C111.13 10.948 110.794 10.918 110.23 10.918C110.158 10.918 110.098 10.96 110.05 11.044C110.014 11.128 109.996 11.224 109.996 11.332V16.858C109.996 17.602 110.086 18.124 110.266 18.424C110.458 18.724 110.758 18.874 111.166 18.874C111.226 18.874 111.256 18.898 111.256 18.946C111.256 18.994 111.226 19.018 111.166 19.018C110.974 19.018 110.812 19.012 110.68 19L110.014 18.982H107.44L106.774 19C106.642 19.012 106.48 19.018 106.288 19.018C106.228 19.018 106.198 18.994 106.198 18.946C106.198 18.898 106.228 18.874 106.288 18.874C106.708 18.874 107.008 18.724 107.188 18.424C107.38 18.124 107.476 17.602 107.476 16.858V11.332C107.476 11.224 107.452 11.128 107.404 11.044C107.356 10.96 107.296 10.918 107.224 10.918C106.66 10.918 106.324 10.948 106.216 11.008C105.604 11.2 105.034 12.184 104.506 13.96C104.494 14.008 104.464 14.032 104.416 14.032C104.38 14.032 104.368 14.008 104.38 13.96C104.548 12.796 104.614 11.77 104.578 10.882C104.578 10.678 104.662 10.576 104.83 10.576C104.926 10.576 105.166 10.606 105.55 10.666C105.934 10.714 106.576 10.738 107.476 10.738H109.996C110.884 10.738 111.52 10.714 111.904 10.666C112.288 10.606 112.528 10.576 112.624 10.576C112.792 10.576 112.876 10.678 112.876 10.882C112.84 11.77 112.906 12.796 113.074 13.96ZM123.463 10.684C123.511 10.684 123.535 10.714 123.535 10.774C123.535 10.822 123.511 10.846 123.463 10.846C123.199 10.846 122.971 10.978 122.779 11.242C122.587 11.494 122.341 11.986 122.041 12.718L119.323 19.216C118.939 20.092 118.591 20.782 118.279 21.286C117.967 21.79 117.619 22.168 117.235 22.42C116.863 22.684 116.413 22.816 115.885 22.816C115.321 22.816 114.793 22.678 114.301 22.402C113.809 22.138 113.545 21.832 113.509 21.484C113.509 21.28 113.611 20.962 113.815 20.53C114.019 20.098 114.217 19.744 114.409 19.468C114.613 19.192 114.703 19.162 114.679 19.378C114.655 19.642 114.745 20.008 114.949 20.476C115.153 20.944 115.423 21.352 115.759 21.7C116.107 22.06 116.461 22.24 116.821 22.24C117.133 22.24 117.397 22.126 117.613 21.898C117.841 21.67 118.063 21.298 118.279 20.782C118.315 20.494 118.105 19.822 117.649 18.766V18.748L115.111 12.718C114.811 11.986 114.565 11.494 114.373 11.242C114.181 10.978 113.953 10.846 113.689 10.846C113.641 10.846 113.617 10.822 113.617 10.774C113.617 10.714 113.641 10.684 113.689 10.684C113.953 10.708 114.217 10.72 114.481 10.72H117.253C117.733 10.72 118.189 10.708 118.621 10.684C118.705 10.684 118.747 10.708 118.747 10.756C118.747 10.816 118.705 10.846 118.621 10.846C117.901 10.846 117.541 11.122 117.541 11.674C117.541 11.938 117.631 12.286 117.811 12.718L119.719 17.308C119.755 17.38 119.797 17.416 119.845 17.416C119.905 17.416 119.941 17.38 119.953 17.308L121.879 12.718C122.047 12.334 122.131 11.992 122.131 11.692C122.131 11.128 121.753 10.846 120.997 10.846C120.913 10.846 120.871 10.816 120.871 10.756C120.871 10.708 120.913 10.684 120.997 10.684C121.453 10.708 121.933 10.72 122.437 10.72H122.671C122.935 10.72 123.199 10.708 123.463 10.684ZM135.105 18.874C135.165 18.874 135.195 18.898 135.195 18.946C135.195 18.994 135.165 19.018 135.105 19.018C134.913 19.018 134.751 19.012 134.619 19L133.953 18.982H131.379L130.749 19C130.629 19.012 130.479 19.018 130.299 19.018C130.239 19.018 130.209 18.994 130.209 18.946C130.209 18.898 130.239 18.874 130.299 18.874C130.683 18.874 130.965 18.724 131.145 18.424C131.325 18.112 131.415 17.59 131.415 16.858V14.734C131.415 14.674 131.397 14.626 131.361 14.59C131.337 14.542 131.295 14.524 131.235 14.536C130.623 14.62 130.041 14.662 129.489 14.662C128.949 14.662 128.361 14.62 127.725 14.536H127.707C127.635 14.536 127.599 14.602 127.599 14.734V16.858C127.599 17.602 127.683 18.124 127.851 18.424C128.031 18.724 128.313 18.874 128.697 18.874C128.757 18.874 128.787 18.898 128.787 18.946C128.787 18.994 128.757 19.018 128.697 19.018C128.517 19.018 128.367 19.012 128.247 19L127.617 18.982H125.043L124.395 19C124.263 19.012 124.095 19.018 123.891 19.018C123.831 19.018 123.801 18.994 123.801 18.946C123.801 18.898 123.831 18.874 123.891 18.874C124.311 18.874 124.611 18.724 124.791 18.424C124.983 18.124 125.079 17.602 125.079 16.858V12.844C125.079 12.112 124.983 11.596 124.791 11.296C124.611 10.996 124.311 10.846 123.891 10.846C123.831 10.846 123.801 10.822 123.801 10.774C123.801 10.714 123.831 10.684 123.891 10.684C124.275 10.708 124.659 10.72 125.043 10.72H127.617C128.001 10.72 128.361 10.708 128.697 10.684C128.757 10.684 128.787 10.714 128.787 10.774C128.787 10.822 128.757 10.846 128.697 10.846C128.313 10.846 128.031 10.996 127.851 11.296C127.683 11.596 127.599 12.112 127.599 12.844V14.176C127.599 14.308 127.641 14.38 127.725 14.392C128.217 14.476 128.787 14.518 129.435 14.518C130.131 14.518 130.731 14.476 131.235 14.392C131.355 14.356 131.415 14.284 131.415 14.176V12.844C131.415 12.112 131.325 11.596 131.145 11.296C130.965 10.996 130.683 10.846 130.299 10.846C130.239 10.846 130.209 10.822 130.209 10.774C130.209 10.714 130.239 10.684 130.299 10.684C130.635 10.708 130.995 10.72 131.379 10.72H133.953C134.361 10.72 134.745 10.708 135.105 10.684C135.165 10.684 135.195 10.714 135.195 10.774C135.195 10.822 135.165 10.846 135.105 10.846C134.697 10.846 134.397 10.996 134.205 11.296C134.025 11.596 133.935 12.112 133.935 12.844V16.858C133.935 17.602 134.025 18.124 134.205 18.424C134.397 18.724 134.697 18.874 135.105 18.874Z" fill="white"/>
</svg>
