<svg xmlns="http://www.w3.org/2000/svg" width="146" height="52" fill="none"><path fill="#645567" d="M68.92 10.76c.013.08 0 .127-.04.14-.04 0-.073-.033-.1-.1-.347-1.453-.673-2.5-.98-3.14-.293-.64-.64-1.06-1.04-1.26-.133-.093-.427-.16-.88-.2-.453-.04-1.06-.067-1.82-.08-.12 0-.227.067-.32.2-.08.12-.12.293-.12.52v11.28c0 .653.173 1.113.52 1.38.347.253.867.393 1.56.42.107 0 .16.02.16.06 0 .053-.053.08-.16.08-.68-.04-1.2-.06-1.56-.06h-2.96c-.36 0-.88.02-1.56.06-.107 0-.16-.027-.16-.08 0-.04.053-.06.16-.06.693-.027 1.213-.167 1.56-.42.347-.267.52-.727.52-1.38V6.84c0-.227-.047-.4-.14-.52-.08-.133-.18-.2-.3-.2-.76.013-1.367.04-1.82.08-.453.04-.747.107-.88.2-.4.2-.76.64-1.08 1.32-.32.667-.633 1.693-.94 3.08-.027.067-.06.1-.1.1-.04-.013-.053-.06-.04-.14.227-1.627.34-3.14.34-4.54 0-.173.027-.287.08-.34.067-.067.16-.1.28-.1.107 0 .427.04.96.12.533.067 1.747.1 3.64.1h1.92c1.893 0 3.107-.033 3.64-.1.533-.08.86-.12.98-.12.107 0 .187.033.24.1.067.053.1.167.1.34-.027 1.28.087 2.793.34 4.54Zm3.98 9.54c-.88 0-1.68-.193-2.4-.58a4.317 4.317 0 0 1-1.68-1.64c-.4-.707-.6-1.513-.6-2.42s.226-1.74.68-2.5a4.884 4.884 0 0 1 1.88-1.8c.8-.453 1.686-.68 2.66-.68.893 0 1.7.193 2.42.58a4.28 4.28 0 0 1 1.7 1.64c.426.693.64 1.493.64 2.4 0 .907-.234 1.747-.7 2.52a5.145 5.145 0 0 1-1.92 1.82c-.8.44-1.694.66-2.68.66Zm.88-.46c.893 0 1.593-.253 2.1-.76.506-.507.76-1.253.76-2.24 0-.813-.2-1.667-.6-2.56-.387-.893-.9-1.64-1.54-2.24-.627-.6-1.274-.9-1.94-.9-.88 0-1.567.253-2.06.76-.494.493-.74 1.233-.74 2.22 0 .8.193 1.653.58 2.56.4.893.906 1.647 1.52 2.26.626.6 1.266.9 1.92.9Zm16.515.04c.067 0 .1.027.1.08 0 .04-.033.06-.1.06-.2-.013-.6-.02-1.2-.02h-1.9c-.573 0-.96.007-1.16.02-.067 0-.1-.02-.1-.06 0-.053.033-.08.1-.08.4 0 .7-.127.9-.38.2-.253.3-.687.3-1.3v-2.86c0-.16-.053-.233-.16-.22-.72.12-1.474.18-2.26.18-.773 0-1.52-.06-2.24-.18h-.02c-.094 0-.14.073-.14.22v2.86c0 .613.1 1.047.3 1.3.2.253.507.38.92.38.066 0 .1.027.1.08 0 .04-.034.06-.1.06-.2-.013-.587-.02-1.16-.02h-1.9c-.6 0-1.007.007-1.22.02-.053 0-.08-.02-.08-.06 0-.053.026-.08.08-.08.426 0 .74-.127.94-.38.213-.253.32-.687.32-1.3v-5.44c0-.6-.107-1.027-.32-1.28-.2-.253-.514-.38-.94-.38-.053 0-.08-.02-.08-.06 0-.053.026-.08.08-.08l1.22.02h1.9l1.16-.02c.066 0 .1.027.1.08 0 .04-.034.06-.1.06-.413 0-.72.127-.92.38-.2.253-.3.68-.3 1.28v1.98c0 .147.053.227.16.24.72.12 1.466.18 2.24.18.787 0 1.54-.06 2.26-.18.106-.013.16-.093.16-.24v-1.98c0-.6-.1-1.027-.3-1.28-.2-.253-.5-.38-.9-.38-.067 0-.1-.02-.1-.06 0-.053.033-.08.1-.08l1.16.02h1.9l1.2-.02c.067 0 .1.027.1.08 0 .04-.033.06-.1.06-.427 0-.747.127-.96.38-.2.253-.3.68-.3 1.28v5.44c0 .613.1 1.047.3 1.3.213.253.533.38.96.38Zm10.526 0c.067 0 .1.027.1.08 0 .04-.033.06-.1.06-.2-.013-.6-.02-1.2-.02h-1.9c-.6 0-1 .007-1.2.02-.067 0-.1-.02-.1-.06 0-.053.033-.08.1-.08.427 0 .74-.127.94-.38.2-.253.3-.687.3-1.3v-6.12c0-.52-.173-.793-.52-.82l-.84-.04c-.627-.013-1.093.053-1.4.2a1.081 1.081 0 0 0-.6.68c-.093.307-.14.74-.14 1.3 0 .573.12 1.047.36 1.42.253.36.64.633 1.16.82.013-.013.04-.02.08-.02l.08.06c.333.12.733.2 1.2.24.04 0 .06.02.06.06 0 .04-.02.06-.06.06a8.02 8.02 0 0 1-.8 0l.02.02c-.573.013-1.007.053-1.3.12a1.176 1.176 0 0 0-.72.42c-.187.227-.333.587-.44 1.08-.187.813-.453 1.413-.8 1.8-.333.373-.86.54-1.58.5-.107-.013-.16-.14-.16-.38 0-.267.053-.54.16-.82.12-.28.233-.373.34-.28.253.133.5.2.74.2.187 0 .347-.04.48-.12.133-.08.247-.193.34-.34.093-.147.173-.353.24-.62.213-.813.647-1.387 1.3-1.72-.84-.16-1.48-.44-1.92-.84a2.027 2.027 0 0 1-.66-1.54c0-1.707 1.36-2.56 4.08-2.56l3.16.02 1.2-.02c.067 0 .1.027.1.08 0 .04-.033.06-.1.06-.427 0-.747.127-.96.38-.2.253-.3.68-.3 1.28v5.44c0 .613.1 1.047.3 1.3.213.253.533.38.96.38ZM69.92 45.92c.08 0 .113.027.1.08 0 .04-.04.06-.12.06-.48-.04-.84-.06-1.08-.06h-1.14c-.413 0-.713-.087-.9-.26a1.698 1.698 0 0 1-.4-.7l-1.24-3.16c-.307-.747-.64-1.347-1-1.8-.36-.467-.82-.82-1.38-1.06-.547-.253-1.233-.38-2.06-.38h-.54v5.48c0 .653.12 1.113.36 1.38.253.253.62.393 1.1.42.08 0 .113.027.1.08 0 .04-.04.06-.12.06-.48-.04-.84-.06-1.08-.06H57.9c-.24 0-.6.02-1.08.06-.067 0-.107-.02-.12-.06 0-.053.04-.08.12-.08.48-.027.84-.167 1.08-.42.24-.267.36-.727.36-1.38V33.88c0-.653-.12-1.107-.36-1.36-.24-.267-.6-.413-1.08-.44-.08 0-.12-.02-.12-.06.013-.053.053-.08.12-.08.48.04.84.06 1.08.06h2.62c.24 0 .6-.02 1.08-.06.08 0 .12.027.12.08.013.04-.02.06-.1.06-.48.027-.847.173-1.1.44-.24.253-.36.707-.36 1.36v4.64l.5-.02c1.2 0 2.14-.233 2.82-.7.693-.467 1.327-1.14 1.9-2.02l1.32-2.06c.213-.333.32-.613.32-.84 0-.267-.113-.46-.34-.58-.213-.133-.493-.207-.84-.22-.08 0-.12-.02-.12-.06.013-.053.053-.08.12-.08.48.04.84.06 1.08.06h.96c.307 0 .74-.02 1.3-.06.093 0 .14.027.14.08 0 .04-.047.06-.14.06-.52.013-.94.14-1.26.38-.32.227-.673.647-1.06 1.26l-1.32 2.08c-.507.787-1.02 1.4-1.54 1.84-.52.44-1.187.733-2 .88 1.387.067 2.473.373 3.26.92.8.533 1.447 1.42 1.94 2.66l.86 2.1c.253.64.513 1.08.78 1.32s.627.373 1.08.4Zm7.616-9.24c.693 0 1.327.193 1.9.58.587.373 1.047.907 1.38 1.6.347.693.52 1.5.52 2.42 0 .867-.2 1.687-.6 2.46a4.803 4.803 0 0 1-1.62 1.84c-.68.467-1.433.7-2.26.7-.573 0-1.04-.08-1.4-.24a4.958 4.958 0 0 1-.98-.6c-.2-.147-.327-.22-.38-.22-.107 0-.16.127-.16.38v2.64c0 .587.093 1.007.28 1.26.2.253.487.387.86.4.053 0 .08.02.08.06 0 .053-.027.08-.08.08-.56-.027-1.167-.04-1.82-.04-.84 0-1.593.013-2.26.04-.067 0-.1-.027-.1-.08.013-.04.053-.06.12-.06.387 0 .667-.127.84-.38.187-.253.28-.687.28-1.3v-9.06c0-.427-.067-.74-.2-.94-.12-.2-.34-.3-.66-.3-.053 0-.173.013-.36.04-.053.013-.087.007-.1-.02 0-.04.013-.067.04-.08.573-.147 1.14-.32 1.7-.52s1.007-.413 1.34-.64c.067-.04.12-.053.16-.04.04.013.06.047.06.1a38.728 38.728 0 0 0-.16 1.7c.027.493.073.747.14.76.827-1.693 1.973-2.54 3.44-2.54Zm-.56 9.26c.987 0 1.7-.267 2.14-.8.44-.533.66-1.327.66-2.38 0-.88-.147-1.707-.44-2.48-.293-.773-.707-1.393-1.24-1.86-.52-.467-1.107-.7-1.76-.7-.707 0-1.287.293-1.74.88-.44.587-.66 1.353-.66 2.3v1.16c0 1.12.267 2.047.8 2.78.533.733 1.28 1.1 2.24 1.1Zm14.04-1.66c.013-.027.033-.027.06 0 .04.027.047.06.02.1a4.9 4.9 0 0 1-1.8 1.44c-.693.307-1.44.46-2.24.46a4.563 4.563 0 0 1-2.26-.58 4.356 4.356 0 0 1-1.66-1.64c-.413-.707-.62-1.513-.62-2.42 0-.933.22-1.773.66-2.52a4.856 4.856 0 0 1 1.82-1.78c.76-.44 1.587-.66 2.48-.66 1 0 1.827.28 2.48.84.667.56 1 1.313 1 2.26 0 .467-.073.92-.22 1.36-1.093.013-3.307.067-6.64.16.16.787.473 1.487.94 2.1a5.217 5.217 0 0 0 1.66 1.42c.627.333 1.24.5 1.84.5 1.107 0 1.933-.347 2.48-1.04Zm-4.3-7.26c-.88 0-1.553.267-2.02.8-.467.52-.7 1.313-.7 2.38 0 .373.027.7.08.98l2.36-.08c.573-.04 1.46-.073 2.66-.1.107-.213.16-.48.16-.8 0-.467-.12-.947-.36-1.44-.24-.507-.56-.92-.96-1.24-.387-.333-.793-.5-1.22-.5Zm15.45 8.88c.067 0 .1.027.1.08 0 .04-.033.06-.1.06-.4-.027-1.166-.04-2.3-.04-.28 0-.48-.053-.6-.16a.903.903 0 0 1-.26-.42l-.68-1.8c-.213-.573-.42-1.013-.62-1.32a1.79 1.79 0 0 0-.78-.7c-.32-.16-.753-.24-1.3-.24h-.34v2.84c0 .613.1 1.047.3 1.3.214.253.534.38.96.38.067 0 .1.027.1.08 0 .04-.033.06-.1.06a23.85 23.85 0 0 0-1.22-.02h-1.9c-.6 0-1.006.007-1.22.02-.053 0-.08-.02-.08-.06 0-.053.027-.08.08-.08.427 0 .74-.127.94-.38.214-.253.32-.687.32-1.3v-5.42c0-.6-.106-1.027-.32-1.28-.2-.253-.513-.38-.94-.38-.053 0-.08-.02-.08-.06 0-.053.027-.08.08-.08l1.22.02h1.9l1.22-.02c.067 0 .1.027.1.08 0 .04-.033.06-.1.06-.426 0-.746.127-.96.38-.2.253-.3.68-.3 1.28v2.46h.34c.88 0 1.56-.153 2.04-.46.494-.32.92-.827 1.28-1.52l.32-.62c.16-.347.24-.62.24-.82 0-.48-.326-.72-.98-.72-.053 0-.08-.02-.08-.06 0-.053.027-.08.08-.08l1.22.02h.44l1.22-.02c.067 0 .1.027.1.08 0 .04-.033.06-.1.06-.4 0-.726.113-.98.34-.253.213-.54.607-.86 1.18l-.42.72c-.32.547-.666.973-1.04 1.28-.36.307-.813.513-1.36.62.947.027 1.687.213 2.22.56.534.333.967.907 1.3 1.72l.36.84c.267.6.494 1.007.68 1.22.2.2.487.307.86.32Zm5.362.4c-.88 0-1.68-.193-2.4-.58a4.311 4.311 0 0 1-1.68-1.64c-.4-.707-.6-1.513-.6-2.42s.227-1.74.68-2.5a4.881 4.881 0 0 1 1.88-1.8c.8-.453 1.687-.68 2.66-.68.893 0 1.7.193 2.42.58.72.387 1.287.933 1.7 1.64.427.693.64 1.493.64 2.4 0 .907-.233 1.747-.7 2.52a5.15 5.15 0 0 1-1.92 1.82c-.8.44-1.693.66-2.68.66Zm.88-.46c.893 0 1.593-.253 2.1-.76.507-.507.76-1.253.76-2.24 0-.813-.2-1.667-.6-2.56-.387-.893-.9-1.64-1.54-2.24-.627-.6-1.273-.9-1.94-.9-.88 0-1.567.253-2.06.76-.493.493-.74 1.233-.74 2.22 0 .8.193 1.653.58 2.56.4.893.907 1.647 1.52 2.26.627.6 1.267.9 1.92.9Zm14.116-5.56c.013.053 0 .08-.04.08s-.067-.02-.08-.06c-.414-1.76-.874-2.74-1.38-2.94-.08-.067-.254-.107-.52-.12a15.877 15.877 0 0 0-1.14-.06c-.08 0-.154.04-.22.12a.605.605 0 0 0-.08.34v6.56c0 .613.1 1.047.3 1.3.213.253.533.38.96.38.066 0 .1.027.1.08 0 .04-.034.06-.1.06a23.87 23.87 0 0 0-1.22-.02h-1.88c-.6 0-1.007.007-1.22.02-.054 0-.08-.02-.08-.06 0-.053.026-.08.08-.08.426 0 .74-.127.94-.38.213-.253.32-.687.32-1.3v-6.56a.613.613 0 0 0-.08-.34c-.054-.08-.12-.12-.2-.12-.507.013-.894.033-1.16.06-.267.013-.44.053-.52.12-.507.2-.967 1.18-1.38 2.94-.014.04-.04.06-.08.06-.027 0-.034-.027-.02-.08.16-1.307.24-2.34.24-3.1.013-.12.033-.2.06-.24.04-.04.1-.06.18-.06.08 0 .293.027.64.08.346.04 1.12.06 2.32.06h1.8c1.2 0 1.973-.02 2.32-.06.36-.053.58-.08.66-.08.146 0 .22.1.22.3.026 1.013.113 2.047.26 3.1Zm10.748-3.32c.054 0 .08.027.08.08 0 .04-.026.06-.08.06-.266 0-.493.113-.68.34-.173.227-.386.64-.64 1.24l-3.22 7.54c-.64 1.427-1.233 2.44-1.78 3.04-.533.6-1.16.9-1.88.9a2.662 2.662 0 0 1-1.44-.4c-.426-.253-.673-.56-.74-.92-.013-.16.047-.4.18-.72.147-.307.3-.553.46-.74.16-.187.24-.207.24-.06 0 .253.087.567.26.94.174.373.407.693.7.96.307.28.634.42.98.42.44 0 .827-.173 1.16-.52.334-.347.687-.933 1.06-1.76.014-.04.02-.1.02-.18 0-.293-.14-.753-.42-1.38l-3.04-7.12c-.266-.613-.486-1.027-.66-1.24a.816.816 0 0 0-.68-.34c-.04 0-.06-.02-.06-.06 0-.053.02-.08.06-.08l.86.02h2.02l1.44-.02c.08 0 .12.027.12.08 0 .04-.04.06-.12.06-.813 0-1.22.28-1.22.84 0 .187.06.433.18.74l2.56 6.02c.08.147.154.147.22 0l2.58-6.02c.12-.28.18-.52.18-.72 0-.573-.426-.86-1.28-.86-.08 0-.12-.02-.12-.06 0-.053.04-.08.12-.08l1.5.02h.24l.84-.02Zm11.515 8.92c.067 0 .1.027.1.08 0 .04-.033.06-.1.06-.2-.013-.6-.02-1.2-.02h-1.9c-.573 0-.96.007-1.16.02-.067 0-.1-.02-.1-.06 0-.053.033-.08.1-.08.4 0 .7-.127.9-.38.2-.253.3-.687.3-1.3v-2.86c0-.16-.053-.233-.16-.22-.72.12-1.473.18-2.26.18-.773 0-1.52-.06-2.24-.18h-.02c-.093 0-.14.073-.14.22v2.86c0 .613.1 1.047.3 1.3.2.253.507.38.92.38.067 0 .1.027.1.08 0 .04-.033.06-.1.06-.2-.013-.587-.02-1.16-.02h-1.9c-.6 0-1.007.007-1.22.02-.053 0-.08-.02-.08-.06 0-.053.027-.08.08-.08.427 0 .74-.127.94-.38.213-.253.32-.687.32-1.3v-5.44c0-.6-.107-1.027-.32-1.28-.2-.253-.513-.38-.94-.38-.053 0-.08-.02-.08-.06 0-.053.027-.08.08-.08l1.22.02h1.9l1.16-.02c.067 0 .1.027.1.08 0 .04-.033.06-.1.06-.413 0-.72.127-.92.38-.2.253-.3.68-.3 1.28v1.98c0 .147.053.227.16.24.72.12 1.467.18 2.24.18.787 0 1.54-.06 2.26-.18.107-.013.16-.093.16-.24v-1.98c0-.6-.1-1.027-.3-1.28-.2-.253-.5-.38-.9-.38-.067 0-.1-.02-.1-.06 0-.053.033-.08.1-.08l1.16.02h1.9l1.2-.02c.067 0 .1.027.1.08 0 .04-.033.06-.1.06-.427 0-.747.127-.96.38-.2.253-.3.68-.3 1.28v5.44c0 .613.1 1.047.3 1.3.213.253.533.38.96.38Z"/><path fill="#E6BDCA" d="M16.245 50.267c.257.127.58.255.837.383.58.255.901.383 1.223.383.258.064.45.064.58.064h.579c.129 0 .322.064.515.128.193.063.45.127.708.191 2.317.511 4.764.703 7.146.511a26.514 26.514 0 0 0 7.017-1.533c4.442-1.66 8.305-4.599 11.137-8.175 2.897-3.577 4.893-7.793 5.665-12.391.387-2.3.451-4.599.194-6.962-.258-2.3-.837-4.599-1.803-6.77.773 2.171 1.159 4.215 1.352 6.195.193 1.98.193 4.024-.065 6.26-.128 0-.45-.064-.579 1.021-.322 1.66-.772 3.322-1.416 4.918a29.111 29.111 0 0 1-2.253 4.471c-1.739 2.683-3.734 4.663-5.15 5.557-.258.128-.451.32-.773.447-.258.128-.58.32-.966.511-.322.192-.772.447-1.287.703-.515.32-1.095.575-1.803 1.022.45-.256.966-.511 1.416-.83.451-.32.902-.576 1.352-.895-.064-.128-.257-.32-.257-.32-1.738 1.214-3.927 2.3-6.18 3.003-2.318.702-4.7 1.022-6.824.958v-.447h-1.03l-1.03-.064c-.515-.32-.13-.447.708-.511.193 0 .45-.064.708-.064.257 0 .58-.064.901-.064.644 0 1.352-.128 2.125-.255 1.545-.256 3.283-.703 4.828-1.342.386-.191.772-.319 1.159-.51.386-.192.708-.384 1.03-.512.644-.383 1.287-.766 1.738-1.15a2.708 2.708 0 0 0-.322-.446c-.515.383-1.094.638-1.61 1.022v-.064c9.013-4.918 14.228-16.543 10.043-26.89-.515-1.277-1.158-2.427-1.93-3.577l.192.192c.258.32.58.639.837.958.258.32.515.639.708.894.387.575.709 1.022.902 1.214.386.638.579.51.643 0 .065-.256 0-.64 0-1.15-.064-.511-.128-1.086-.322-1.724-.064-.32-.193-.64-.321-.959-.13-.319-.258-.702-.387-1.021-.322-.703-.644-1.406-1.03-2.044-.386-.703-.837-1.278-1.223-1.853-.45-.51-.837-1.085-1.223-1.469-.773-.83-.708-.958-.322-.958.322 0 .966.256 1.095.064-.966-.702-1.61-1.277-2.318-1.852a12.352 12.352 0 0 1-1.094-.83c-.387-.256-.902-.511-1.417-.767 0-.064-.386-.255-1.03-.575a9.71 9.71 0 0 0-1.159-.575c-.45-.191-.965-.383-1.48-.574C32.854.447 30.086 0 28.283 0c0 0-.321 0-1.03.064-.772.064-1.93.128-3.733.383-1.16.192-1.16.383-1.095.511 0-.128 0-.128-.064-.255-.58.255-1.417.447-2.253.702-.837.256-1.674.511-2.254.767l-.128-.256c-2.125 1.15-4.378 2.108-6.18 3.705-.065-.128-.065-.128-.194-.256-.45.383-.901.767-1.287 1.022-.322.256-.58.447-.644.383l-.193-.191c-1.03.702-2.382 2.746-2.575 2.555.128.063.128.063.193.191-1.545 1.852-2.64 3.64-3.54 5.365-.194.447-.452.83-.645 1.278-.193.447-.386.83-.58 1.277-.063.192-.192.447-.257.639-.064.192-.128.447-.257.639-.129.447-.322.894-.45 1.277-.773 2.3-1.224 4.982-1.095 7.728.064 2.81.644 5.621 1.738 8.304 2.124 5.3 6.051 9.9 10.751 12.838 1.03.638 2.253 1.022 1.352.127.515.32 1.03.575 1.61.895l.772.575Z"/></svg>