<svg xmlns="http://www.w3.org/2000/svg" width="30" height="30" fill="none"><rect width="29" height="29" x=".5" y=".5" stroke="#fff" rx="14.5"/><path fill="#fff" d="M15 8.86h3.07c.73 0 1.09.18 1.36.27.36.18.63.27.9.54s.45.54.54.9c.1.27.18.63.27 1.36v6.14c0 .73-.18 1.09-.27 1.36-.18.36-.27.63-.54.9s-.54.45-.9.54a6.8 6.8 0 0 1-1.36.27h-6.14c-.73 0-1.09-.18-1.36-.27-.36-.18-.63-.27-.9-.54a1.87 1.87 0 0 1-.54-.9 6.79 6.79 0 0 1-.27-1.36v-6.14c0-.73.18-1.09.27-1.36.18-.36.27-.63.54-.9s.54-.45.9-.54c.27-.1.63-.18 1.36-.27H15Zm0-1.36h-3.07a4.53 4.53 0 0 0-3.16 1.27c-.46.45-.64.8-.9 1.35a7 7 0 0 0-.37 1.8v6.15a4.53 4.53 0 0 0 1.27 3.16c.45.46.8.64 1.35.9a7 7 0 0 0 1.8.37h6.15a4.54 4.54 0 0 0 3.16-1.27c.46-.45.64-.8.9-1.35a7 7 0 0 0 .37-1.8v-6.15a4.54 4.54 0 0 0-1.27-3.16 4.45 4.45 0 0 0-1.35-.9 7 7 0 0 0-1.8-.37H15Z"/><path fill="#fff" d="M15 11.11A3.86 3.86 0 0 0 11.11 15 3.86 3.86 0 0 0 15 18.89 3.86 3.86 0 0 0 18.89 15 3.86 3.86 0 0 0 15 11.11Zm0 6.42a2.53 2.53 0 1 1 0-5.06A2.53 2.53 0 0 1 17.53 15 2.59 2.59 0 0 1 15 17.53ZM18.98 11.93a.9.9 0 1 0 0-1.8.9.9 0 0 0 0 1.8Z"/></svg>